<?xml version="1.0" encoding="UTF-8" standalone="no"?>
<svg width="131px" height="134px" viewBox="0 0 131 134" version="1.1" xmlns="http://www.w3.org/2000/svg" xmlns:xlink="http://www.w3.org/1999/xlink" xmlns:sketch="http://www.bohemiancoding.com/sketch/ns">
    <!-- Generator: Sketch 3.5.2 (25235) - http://www.bohemiancoding.com/sketch -->
    <title>chalk@2x</title>
    <desc>Created with Sketch.</desc>
    <defs>
        <path id="path-1" d="M96.4,48.2 C96.4,74.8199562 74.8199562,96.4 48.2,96.4 C21.5800437,96.4 0,74.8199562 0,48.2 C0,21.5800437 21.5800437,0 48.2,0 C74.8199562,0 96.4,21.5800437 96.4,48.2"></path>
    </defs>
    <g id="Page-1" stroke="none" stroke-width="1" fill="none" fill-rule="evenodd" sketch:type="MSPage">
        <g id="chalk" sketch:type="MSArtboardGroup">
            <g id="tower-and-circles" sketch:type="MSLayerGroup" transform="translate(74.675523, 36.275523) rotate(33.000000) translate(-74.675523, -36.275523) translate(26.475523, -11.924477)">
                <path d="M96.4,48.2 C96.4,74.8199562 74.8199562,96.4 48.2,96.4 C21.5800437,96.4 0,74.8199562 0,48.2 C0,21.5800437 21.5800437,0 48.2,0 C74.8199562,0 96.4,21.5800437 96.4,48.2" id="circle-background" sketch:type="MSShapeGroup"></path>
                <mask id="mask-2" sketch:name="circle-background-mask" fill="white">
                    <use xlink:href="#path-1"></use>
                </mask>
                <use id="circle-background-mask" sketch:type="MSShapeGroup" xlink:href="#path-1"></use>
                <g id="tower" mask="url(#mask-2)" fill="#FFFFFF" sketch:type="MSShapeGroup">
                    <g transform="translate(16.674595, 16.674595)">
                        <path d="M35.6521261,26.8294379 C38.3114618,29.0418966 38.6727222,32.9917463 36.4602634,35.6521261 C34.2478047,38.3114618 30.2979551,38.6737663 27.6375752,36.4602634 C24.9782395,34.2478047 24.6169791,30.2979551 26.8294379,27.6386193 C29.0418966,24.9782395 32.9917463,24.6169791 35.6521261,26.8294379" id="center"></path>
                        <path d="M51.7278253,49.8934503 C57.6311297,43.3881723 59.8782645,34.6738942 58.3165585,26.5040848 L62.4775916,26.0220081 C64.1726097,35.3955495 61.5379877,45.3495312 54.7664592,52.7663329 L51.7278253,49.8934503 Z M46.2422095,59.2239838 C46.3676859,59.2121013 46.4929085,59.1887168 46.6164127,59.1534754 L46.2422095,59.2239838 Z M45.6667804,44.1630231 C49.8823833,39.4608935 51.2750981,33.206569 49.969448,27.4711397 L54.1420272,26.9877254 C55.5741554,33.959244 53.7343627,41.4523214 48.6997865,47.030585 L45.6667804,44.1630231 Z M42.5918532,41.255827 C42.7227499,41.1573043 42.8440656,41.0416512 42.952509,40.9091953 C46.0308319,37.1596289 46.9575213,32.3381297 45.8072057,27.9533565 L41.5956268,28.4412892 C42.6581931,31.7184686 42.055769,35.4196718 39.724136,38.2582125 C39.6793436,38.3128451 39.6377773,38.3690576 39.5994145,38.4266198 L42.5918532,41.255827 Z M6.13426787,22.3044429 C2.7598841,31.5204957 4.60911711,42.1313335 11.439743,49.7588997 L8.54852526,52.7943324 C0.418601735,43.9117745 -1.76410075,31.3787097 2.32262249,20.5660128 L6.13426787,22.3044429 Z M14.5110764,10.5845795 C25.1790945,1.87951571 40.8943293,2.50356312 50.8407232,12.4489781 C51.8087913,13.4172086 52.6875638,14.4374006 53.4775684,15.5000313 L56.4366122,12.4906695 C55.6309149,11.4532408 54.7500039,10.4528003 53.7934524,9.49624888 C42.5395355,-1.75862784 24.8868666,-2.66538496 12.6007143,6.77111083 L14.5110764,10.5845795 Z M13.7847032,25.7936835 C11.8286343,31.7743444 12.9209417,38.5766955 17.2161787,43.6943332 L14.3239338,46.7308444 C8.78684121,40.3788315 7.30052543,31.6632775 9.9592375,24.0489501 L13.7847032,25.7936835 Z M18.3874188,18.3225743 C25.7177024,11.0269266 37.6166336,11.0389348 44.9352647,18.3554808 C45.926511,19.3469873 46.7856522,20.4255429 47.5112827,21.5677727 L50.5052735,18.5228696 C49.7403645,17.4269449 48.8680885,16.381802 47.8879939,15.4017074 C39.2688438,6.78255734 25.4474002,6.45806786 16.4365434,14.428239 L18.3874187,18.3225741 Z M17.5995863,27.5335904 C16.3052587,31.9259324 17.120786,36.8113382 20.1227064,40.6428269 L23.0466918,37.572992 C21.3258574,35.0944343 20.8086509,32.0843943 21.4576149,29.2931751 L17.5995863,27.5335904 Z M20.3887003,22.3175532 C20.6772726,21.9708894 20.9841449,21.6343633 21.3092541,21.3092541 C27.009024,15.6094843 36.2806774,15.6094843 41.9804472,21.3092541 C42.9939052,22.3225141 43.8301475,23.4467547 44.487257,24.6432214 L41.3696671,27.8138254 C40.8562288,26.520008 40.0741868,25.308166 39.0277179,24.2619834 C34.9577962,20.1910176 28.3319051,20.1910176 24.2619834,24.2619834 C23.5607474,24.9632194 22.9782471,25.7388063 22.5157393,26.5635705 L20.3887003,22.3175532 Z" id="ring-3"></path>
                    </g>
                </g>
                <g id="wedges" mask="url(#mask-2)">
                    <g transform="translate(53.600000, 53.790270)"></g>
                </g>
            </g>
            <g id="hands" sketch:type="MSLayerGroup" transform="translate(16.800000, 25.600000)">
                <g id="left-hand" transform="translate(37.200000, 51.600000) scale(-1, 1) translate(-37.200000, -51.600000) translate(0.000000, 0.000000)" sketch:type="MSShapeGroup">
                    <path d="M3.58732867,103.182997 C1.62483357,103.182997 0.0286153846,101.585787 0.0286153846,99.6220724 L0.0286153846,67.481604 C0.0286153846,58.1784281 5.60861538,49.9424884 14.2447385,46.4992201 L19.5874909,44.368392 C21.9094993,43.4422392 24.1373371,42.2656764 26.2101315,40.8694191 L45.5993958,27.8132161 C46.8371413,26.9786894 48.2809175,26.5382593 49.7730797,26.5382593 C51.5607608,26.5382593 53.2922517,27.1801628 54.6475804,28.3463136 L56.8665734,30.253803 L56.8665734,11.6141327 C56.8665734,5.38824121 61.9283748,0.323294472 68.1504,0.323294472 L69.0541259,0.323294472 C72.0020308,0.323294472 74.4,2.72275377 74.4,5.67249045 L74.4,44.1247497 C74.4,49.6108643 73.9723301,55.2526392 68.8585007,58.6563417 L35.0267916,81.1734633 C32.8057175,82.6519759 31.4795245,85.1274432 31.4795245,87.7970955 L31.4795245,99.6220724 C31.4795245,101.585787 29.8833063,103.182997 27.9213315,103.182997 L3.58732867,103.182997 L3.58732867,103.182997 Z" stroke="#FFFFFF" stroke-width="2.08"></path>
                    <path d="M31.7714014,66.6340623 C31.6486154,66.6340623 31.523228,66.6127176 31.4009622,66.5679457 C30.8421818,66.3638693 30.5549874,65.7443518 30.7594573,65.1852241 L32.3327832,60.8829608 C33.6881119,57.1752261 36.0184448,53.8928241 39.0709259,51.3913266 L56.136621,37.4053266 C56.9591832,36.7316663 57.4815441,35.7373146 57.5705119,34.6778874 C57.66,33.6179397 57.3098517,32.5501829 56.6121566,31.7484543 C56.2209063,31.3002151 56.2672112,30.6187457 56.7162126,30.2277729 C57.1641734,29.8373206 57.8452196,29.8826131 58.2359497,30.3324141 C59.3155301,31.5709286 59.8555804,33.220199 59.7177063,34.8580161 C59.5808727,36.4958332 58.7733986,38.0326533 57.5023552,39.0738593 L40.4366601,53.0598593 C37.6822993,55.317194 35.579849,58.2778633 34.356151,61.6242995 L32.7833455,65.9260422 C32.6236196,66.3628281 32.2105175,66.6340623 31.7714014,66.6340623 L31.7714014,66.6340623 Z" id="left-crease" fill="#FFFFFF"></path>
                </g>
            </g>
        </g>
    </g>
</svg>