<?xml version="1.0" encoding="UTF-8" standalone="no"?>
<svg width="28px" height="39px" viewBox="0 0 28 39" version="1.1" xmlns="http://www.w3.org/2000/svg" xmlns:xlink="http://www.w3.org/1999/xlink">
    <!-- Generator: Sketch 3.6.1 (26313) - http://www.bohemiancoding.com/sketch -->
    <title>design-thinking-icon</title>
    <desc>Created with Sketch.</desc>
    <defs></defs>
    <g id="Page-1" stroke="none" stroke-width="1" fill="none" fill-rule="evenodd">
        <g id="ict4d-anchor-areas" transform="translate(-482.000000, -299.000000)" fill="#07447E">
            <g id="items" transform="translate(41.000000, 152.000000)">
                <g id="design-thinking" transform="translate(380.000000, 147.000000)">
                    <g id="design-thinking-icon" transform="translate(61.000000, 0.000000)">
                        <path d="M14.427,5 C9.235,5 5.025,9.161 5.025,14.294 C5.025,15.598 5.401,16.836 5.932,17.983 C5.901,17.695 5.879,17.405 5.879,17.111 C5.879,11.511 10.472,6.972 16.137,6.972 C18.316,6.972 20.333,7.648 21.994,8.794 C20.282,6.497 17.535,5 14.427,5" id="Fill-82"></path>
                        <path d="M20,27 C20,27.621 19.226,28.626 17.684,29.3 C16.145,29.757 14.897,30 14,30 C13.744,30 13.52,29.971 13.279,29.955 C12.221,29.843 11.074,29.533 10.355,29.318 C8.785,28.645 8,27.626 8,27 C8,25 2,20 2,14 C2,7.373 7.373,2 14,2 C20.627,2 26,7.373 26,14 C26,20 20,25 20,27 L20,27 Z M18.998,30.999 L19,31 C19,34.313 17.314,37 14,37 C10.687,37 9,34.313 9,31 L9.002,30.999 C9.032,30.999 9.361,31.111 9.862,31.259 C10.917,31.671 12.154,31.935 13.534,31.984 C13.692,31.994 13.848,32 14,32 C14.153,32 14.309,31.994 14.466,31.984 C15.842,31.935 17.077,31.673 18.13,31.262 C18.636,31.112 18.97,30.999 18.998,30.999 L18.998,30.999 Z M14,0 C6.28,0 0,6.28 0,14 C0,18.441 2.627,22.147 4.545,24.853 C5.102,25.638 5.858,26.704 6.003,27.119 C6.043,28.041 6.55,28.978 7.423,29.784 C7.162,30.122 7,30.54 7,31 C7,35.785 9.814,39 14,39 C18.187,39 21,35.785 21,31 C21,30.54 20.838,30.122 20.577,29.784 C21.45,28.978 21.957,28.041 21.997,27.119 C22.143,26.704 22.899,25.638 23.455,24.853 C25.373,22.147 28,18.441 28,14 C28,6.28 21.72,0 14,0 L14,0 Z" id="Fill-83"></path>
                    </g>
                </g>
            </g>
        </g>
    </g>
</svg>