<?xml version="1.0" encoding="UTF-8" standalone="no"?>
<svg width="40px" height="34px" viewBox="0 0 40 34" version="1.1" xmlns="http://www.w3.org/2000/svg" xmlns:xlink="http://www.w3.org/1999/xlink">
    <!-- Generator: Sketch 3.6.1 (26313) - http://www.bohemiancoding.com/sketch -->
    <title>digital-literacy-icon</title>
    <desc>Created with Sketch.</desc>
    <defs></defs>
    <g id="Page-1" stroke="none" stroke-width="1" fill="none" fill-rule="evenodd">
        <g id="ict4d-anchor-areas" transform="translate(-96.000000, -156.000000)" fill="#07447E">
            <g id="items" transform="translate(41.000000, 152.000000)">
                <g id="digital-literacy" transform="translate(0.000000, 4.000000)">
                    <g id="digital-literacy-icon" transform="translate(55.000000, 0.000000)">
                        <path d="M38,30 C38,31.104 37.105,32 36,32 L4,32 C2.896,32 2,31.104 2,30 L2,27 L17,27 C17,28.104 17.896,29 19,29 L21,29 C22.105,29 23,28.104 23,27 L38,27 L38,30 L38,30 Z M4,4 C4,2.896 4.896,2 6,2 L34,2 C35.105,2 36,2.896 36,4 L36,25 L4,25 L4,4 L4,4 Z M38,25 L38,4 C38,1.794 36.206,0 34,0 L6,0 C3.795,0 2,1.794 2,4 L2,25 C0.896,25 0,25.896 0,27 L0,30 C0,32.206 1.795,34 4,34 L36,34 C38.206,34 40,32.206 40,30 L40,27 C40,25.896 39.105,25 38,25 L38,25 Z" id="Fill-195"></path>
                        <path d="M9,20 L31,20 L31,7 L9,7 L9,20 Z M7,22 L33,22 L33,5 L7,5 L7,22 Z" id="Fill-196"></path>
                    </g>
                </g>
            </g>
        </g>
    </g>
</svg>