<?xml version="1.0" encoding="UTF-8" standalone="no"?>
<svg width="41px" height="32px" viewBox="0 0 41 32" version="1.1" xmlns="http://www.w3.org/2000/svg" xmlns:xlink="http://www.w3.org/1999/xlink">
    <!-- Generator: Sketch 3.6.1 (26313) - http://www.bohemiancoding.com/sketch -->
    <title>education-icon</title>
    <desc>Created with Sketch.</desc>
    <defs></defs>
    <g id="Page-1" stroke="none" stroke-width="1" fill="none" fill-rule="evenodd">
        <g id="ict4d-anchor-areas" transform="translate(-96.000000, -306.000000)" fill="#07447E">
            <g id="items" transform="translate(41.000000, 152.000000)">
                <g id="education" transform="translate(0.000000, 154.000000)">
                    <g id="education-icon" transform="translate(55.000000, 0.000000)">
                        <path d="M38.5131871,10.099 L18.8731871,17.315 L18.8431871,17.325 L18.7931871,17.343 L18.7931871,17.344 C18.7031871,17.378 18.5831871,17.412 18.4531871,17.442 L18.3631871,17.462 C18.2231871,17.49 18.0731871,17.512 17.9231871,17.512 L17.8131871,17.508 C17.7031871,17.501 17.5931871,17.478 17.4931871,17.45 L17.4231871,17.429 L17.2331871,17.354 L17.1731871,17.326 L17.0531871,17.258 L17.0131871,17.237 L16.9631871,17.202 L16.9131871,17.175 L16.8731871,17.155 L4.85318709,10.797 L4.85318709,22.584 C6.04318709,23.89 8.99318709,29.843 4.49318709,29.968 C4.45318709,29.968 -0.736812907,29.953 3.98318709,22.584 L2.93318709,10.195 C2.93318709,10.195 2.88318709,9.289 3.86318709,8.93 C4.71318709,8.621 18.1931871,3.606 22.2631871,2.156 C22.5931871,2.039 22.9231871,2 23.2231871,2 C23.8231871,2 24.2831871,2.16 24.2831871,2.16 C24.2831871,2.16 38.1831871,8.914 38.4831871,9.006 C39.3831871,9.507 38.5131871,10.099 38.5131871,10.099 L38.5131871,10.099 Z M33.9231871,21.984 C33.9231871,24.746 28.7731871,26.984 22.4231871,26.984 C16.0631871,26.984 10.9231871,24.746 10.9231871,21.984 L10.9231871,16.268 L15.9331871,18.92 L16.1331871,19.039 L16.2131871,19.082 C16.2931871,19.123 16.3831871,19.164 16.4831871,19.205 L16.6131871,19.264 C16.7131871,19.304 16.8331871,19.337 16.9531871,19.37 L17.1031871,19.418 C17.2231871,19.444 17.3531871,19.457 17.4831871,19.473 L17.6831871,19.505 L17.9231871,19.512 C18.1031871,19.512 18.2831871,19.499 18.4531871,19.477 L18.5731871,19.455 C18.6931871,19.436 18.8131871,19.417 18.9131871,19.392 L19.0031871,19.368 C19.1031871,19.342 19.2031871,19.316 19.2831871,19.291 L19.3931871,19.252 L19.5231871,19.207 L33.9231871,14.016 L33.9231871,21.984 L33.9231871,21.984 Z M39.4631871,7.259 L39.2131871,7.144 C38.4731871,6.816 30.4331871,2.922 25.1531871,0.361 L24.9431871,0.272 C24.8131871,0.227 24.1231871,0 23.2231871,0 C22.6531871,0 22.1031871,0.091 21.5931871,0.271 C18.3731871,1.419 9.47318709,4.718 5.20318709,6.303 C4.10318709,6.711 3.35318709,6.986 3.17318709,7.052 C1.54318709,7.651 0.873187093,9.116 0.933187093,10.302 L0.943187093,10.363 L1.93318709,22.091 C-0.0368129068,25.359 -0.496812907,27.866 0.533187093,29.74 C1.43318709,31.385 3.23318709,31.968 4.49318709,31.968 L4.55318709,31.967 C7.16318709,31.895 8.18318709,30.412 8.55318709,29.535 C9.64318709,26.97 7.99318709,23.544 6.85318709,21.908 L6.85318709,14.118 L9.12318709,15.316 C8.99318709,15.578 8.92318709,15.861 8.92318709,16.16 L8.92318709,21.984 C8.92318709,26.58 15.7131871,28.984 22.4231871,28.984 C29.1231871,28.984 35.9231871,26.58 35.9231871,21.984 L35.9231871,14.016 C35.9231871,13.746 35.8531871,13.487 35.7531871,13.245 L39.2031871,11.977 C39.3531871,11.921 39.4931871,11.847 39.6331871,11.756 C40.2731871,11.324 40.9331871,10.483 40.8931871,9.418 C40.8731871,8.998 40.6931871,7.947 39.4631871,7.259 L39.4631871,7.259 Z" id="Fill-707"></path>
                    </g>
                </g>
            </g>
        </g>
    </g>
</svg>