<?xml version="1.0" encoding="UTF-8" standalone="no"?>
<svg width="32px" height="40px" viewBox="0 0 32 40" version="1.1" xmlns="http://www.w3.org/2000/svg" xmlns:xlink="http://www.w3.org/1999/xlink">
    <!-- Generator: Sketch 3.6.1 (26313) - http://www.bohemiancoding.com/sketch -->
    <title>gis-icon</title>
    <desc>Created with Sketch.</desc>
    <defs></defs>
    <g id="Page-1" stroke="none" stroke-width="1" fill="none" fill-rule="evenodd">
        <g id="ict4d-anchor-areas" transform="translate(-480.000000, -464.000000)" fill="#07447E">
            <g id="items" transform="translate(41.000000, 152.000000)">
                <g id="gis" transform="translate(380.000000, 312.000000)">
                    <g id="gis-icon" transform="translate(59.000000, 0.000000)">
                        <path d="M16,25 C11.038,25 7,20.962 7,16 C7,11.038 11.038,7 16,7 C20.963,7 25,11.038 25,16 C25,20.962 20.963,25 16,25 L16,25 Z M16,5 C9.925,5 5,9.926 5,16 C5,22.074 9.925,27 16,27 C22.075,27 27,22.074 27,16 C27,9.926 22.075,5 16,5 L16,5 Z" id="Fill-184"></path>
                        <path d="M26.431,25.315 C26.126,25.656 16,38 16,38 L5.553,25.318 L5.572,25.318 C3.358,22.842 2,19.584 2,16 C2,8.268 8.268,2 16,2 C23.732,2 30,8.268 30,16 C30,19.582 28.647,22.842 26.431,25.315 L26.431,25.315 Z M16,0 C7.178,0 0,7.178 0,16 C0,19.836 1.385,23.537 3.905,26.45 L4.01,26.59 L14.457,39.271 C14.837,39.733 15.402,40 16,40 L16.002,40 C16.6,40 17.167,39.731 17.546,39.269 C21.535,34.406 27.593,27.028 27.933,26.636 C30.551,23.713 32,19.931 32,16 C32,7.178 24.822,0 16,0 L16,0 Z" id="Fill-185"></path>
                    </g>
                </g>
            </g>
        </g>
    </g>
</svg>