<?xml version="1.0" encoding="UTF-8" standalone="no"?>
<svg width="38px" height="39px" viewBox="0 0 38 39" version="1.1" xmlns="http://www.w3.org/2000/svg" xmlns:xlink="http://www.w3.org/1999/xlink">
    <!-- Generator: Sketch 3.6.1 (26313) - http://www.bohemiancoding.com/sketch -->
    <title>libraries-icon</title>
    <desc>Created with Sketch.</desc>
    <defs></defs>
    <g id="Page-1" stroke="none" stroke-width="1" fill="none" fill-rule="evenodd">
        <g id="ict4d-anchor-areas" transform="translate(-478.000000, -622.000000)" fill="#07447E">
            <g id="items" transform="translate(41.000000, 152.000000)">
                <g id="libraries" transform="translate(380.000000, 470.000000)">
                    <g id="libraries-icon" transform="translate(57.000000, 0.000000)">
                        <path d="M12.2887278,19.5752896 L14.9110086,19.5752896 L14.9110086,18.2200772 L12.2887278,18.2200772 L12.2887278,19.5752896 Z" id="Fill-403"></path>
                        <path d="M17.5332894,16.8648649 L20.1555702,16.8648649 L20.1555702,15.5096525 L17.5332894,15.5096525 L17.5332894,16.8648649 Z" id="Fill-404"></path>
                        <path d="M26.8174746,28.1221622 L24.2279723,28.5467954 C24.1812083,28.5558301 24.1348813,28.5603475 24.0894285,28.5603475 C23.6672413,28.5603475 23.2957515,28.2441313 23.2271351,27.7969112 L21.9208022,17.9671042 C21.8447561,17.4747104 22.1699189,17.0094208 22.646737,16.9326255 L25.2362393,16.5034749 C25.2830033,16.4989575 25.3293303,16.4944402 25.3747831,16.4944402 C25.7969703,16.4944402 26.1684601,16.8106564 26.2370765,17.2533591 L27.5429723,27.0876834 C27.6190185,27.5800772 27.2942927,28.0408494 26.8174746,28.1221622 L26.8174746,28.1221622 Z M21.0296638,27.7065637 C21.0296638,28.2034749 20.6385069,28.6100386 20.1555702,28.6100386 L17.5332894,28.6100386 C17.0507897,28.6100386 16.6591958,28.2034749 16.6591958,27.7065637 L16.6591958,15.5096525 C16.6591958,15.0127413 17.0507897,14.6061776 17.5332894,14.6061776 L20.1555702,14.6061776 C20.6385069,14.6061776 21.0296638,15.0127413 21.0296638,15.5096525 L21.0296638,27.7065637 L21.0296638,27.7065637 Z M14.9110086,28.6100386 L12.2887278,28.6100386 C11.8062281,28.6100386 11.4146341,28.2034749 11.4146341,27.7065637 L11.4146341,18.2200772 C11.4146341,17.723166 11.8062281,17.3166023 12.2887278,17.3166023 L14.9110086,17.3166023 C15.3939453,17.3166023 15.7851022,17.723166 15.7851022,18.2200772 L15.7851022,27.7065637 C15.7851022,28.2034749 15.3939453,28.6100386 14.9110086,28.6100386 L14.9110086,28.6100386 Z M28.4065768,26.9431274 L27.1033032,17.13139 C26.9643223,16.2324324 26.2388247,15.5909653 25.3747831,15.5909653 C25.2830033,15.5909653 25.1899123,15.5954826 25.0985695,15.6135521 L22.5090672,16.0381853 C22.291855,16.0743243 22.0881912,16.1556371 21.9037574,16.2640541 L21.9037574,15.5096525 C21.9037574,14.5113127 21.1196955,13.7027027 20.1555702,13.7027027 L17.5332894,13.7027027 C16.5696012,13.7027027 15.7851022,14.5113127 15.7851022,15.5096525 L15.7851022,16.6661004 C15.5268075,16.5079923 15.2309268,16.4131274 14.9110086,16.4131274 L12.2887278,16.4131274 C11.3250396,16.4131274 10.5405405,17.2217375 10.5405405,18.2200772 L10.5405405,27.7065637 C10.5405405,28.7049035 11.3250396,29.5135135 12.2887278,29.5135135 L14.9110086,29.5135135 C15.4354647,29.5135135 15.9013566,29.2695753 16.222149,28.8901158 C16.5429413,29.2695753 17.0088332,29.5135135 17.5332894,29.5135135 L20.1555702,29.5135135 C21.1196955,29.5135135 21.9037574,28.7049035 21.9037574,27.7065637 L21.9037574,24.4766409 L22.3609084,27.9188803 C22.4998893,28.8223552 23.225824,29.4638224 24.0894285,29.4638224 C24.1812083,29.4638224 24.2738622,29.4547876 24.365205,29.4412355 L26.9551444,29.0120849 C27.4153546,28.9352896 27.8209341,28.6823166 28.0949624,28.289305 C28.3694278,27.9008108 28.4800007,27.4219691 28.4065768,26.9431274 L28.4065768,26.9431274 Z" id="Fill-405"></path>
                        <path d="M22.7424502,17.5921622 L22.9482993,18.9338224 L25.5382386,18.5091892 L25.3323896,17.167529 L22.7424502,17.5921622" id="Fill-406"></path>
                        <path d="M35.7819361,19.6802432 C35.5584766,20.6288919 34.7089091,21.3034865 33.7307469,21.3034865 L30.5685847,21.3034865 L30.5685847,33.9521351 C30.5685847,35.1115946 29.6252064,36.0602432 28.4604766,36.0602432 L9.48750366,36.0602432 C8.32382798,36.0602432 7.37939555,35.1115946 7.37939555,33.9521351 L7.37939555,21.3034865 L4.21723339,21.3034865 C3.23907123,21.3034865 2.39055771,20.6288919 2.1660442,19.6802432 C1.94047663,18.7315946 2.4000442,17.7513243 3.27490906,17.3086216 L18.0316658,2.33051351 C18.327855,2.18189189 18.6514496,2.10810811 18.9739901,2.10810811 C19.2975847,2.10810811 19.6201253,2.18189189 19.9173685,2.33051351 L34.6741253,17.3086216 C35.5489901,17.7513243 36.0075037,18.7315946 35.7819361,19.6802432 L35.7819361,19.6802432 Z M35.9716658,15.6221351 L21.4183415,0.850621622 C21.2560172,0.685135135 21.0662874,0.548108108 20.8586388,0.443756757 C20.276801,0.153891892 19.6243415,0 18.9739901,0 C18.3236388,0 17.6722334,0.153891892 17.0903956,0.443756757 C16.8816928,0.548108108 16.6930172,0.685135135 16.5296388,0.850621622 L1.97631447,15.6221351 C0.454260416,16.5707838 -0.305712557,18.3837568 0.11485501,20.1651081 C0.564936091,22.0729459 2.25247663,23.4115946 4.21723339,23.4115946 L5.27128744,23.4115946 L5.27128744,33.9521351 C5.27128744,36.2815946 7.16331447,38.1683514 9.48750366,38.1683514 L28.4604766,38.1683514 C30.7857199,38.1683514 32.6766928,36.2815946 32.6766928,33.9521351 L32.6766928,23.4115946 L33.7307469,23.4115946 C35.6955037,23.4115946 37.3830442,22.0729459 37.8341793,20.1651081 C38.2547469,18.3837568 37.4947739,16.5707838 35.9716658,15.6221351 L35.9716658,15.6221351 Z" id="Fill-231"></path>
                    </g>
                </g>
            </g>
        </g>
    </g>
</svg>