<?xml version="1.0" encoding="UTF-8" standalone="no"?>
<svg width="328px" height="333px" viewBox="0 0 328 333" version="1.1" xmlns="http://www.w3.org/2000/svg" xmlns:xlink="http://www.w3.org/1999/xlink" xmlns:sketch="http://www.bohemiancoding.com/sketch/ns">
    <!-- Generator: Sketch 3.5.2 (25235) - http://www.bohemiancoding.com/sketch -->
    <title>logo@2x</title>
    <desc>Created with Sketch.</desc>
    <defs>
        <path id="path-1" d="M241,120.5 C241,187.049891 187.049891,241 120.5,241 C53.9501094,241 0,187.049891 0,120.5 C0,53.9501094 53.9501094,0 120.5,0 C187.049891,0 241,53.9501094 241,120.5"></path>
    </defs>
    <g id="Page-1" stroke="none" stroke-width="1" fill="none" fill-rule="evenodd" sketch:type="MSPage">
        <g id="logo" sketch:type="MSArtboardGroup">
            <g id="tower-and-circles" sketch:type="MSLayerGroup" transform="translate(186.688807, 90.688807) rotate(33.000000) translate(-186.688807, -90.688807) translate(66.188807, -29.811193)">
                <path d="M241,120.5 C241,187.049891 187.049891,241 120.5,241 C53.9501094,241 0,187.049891 0,120.5 C0,53.9501094 53.9501094,0 120.5,0 C187.049891,0 241,53.9501094 241,120.5" id="circle-background" sketch:type="MSShapeGroup"></path>
                <mask id="mask-2" sketch:name="circle-background-mask" fill="white">
                    <use xlink:href="#path-1"></use>
                </mask>
                <use id="circle-background-mask" sketch:type="MSShapeGroup" xlink:href="#path-1"></use>
                <g id="tower" mask="url(#mask-2)" fill="#07447E" sketch:type="MSShapeGroup">
                    <g transform="translate(41.686486, 41.686486)">
                        <path d="M89.1303152,67.0735947 C95.7786545,72.6047415 96.6818055,82.4793656 91.1506586,89.1303152 C85.6195118,95.7786545 75.7448877,96.6844157 69.0939381,91.1506586 C62.4455988,85.6195118 61.5424479,75.7448877 67.0735947,69.0965483 C72.6047415,62.4455988 82.4793656,61.5424479 89.1303152,67.0735947" id="center"></path>
                        <path d="M129.319563,124.733626 C144.077824,108.470431 149.695661,86.6847356 145.791396,66.260212 L156.193979,65.0550203 C160.431524,88.4888738 153.844969,113.373828 136.916148,131.915832 L129.319563,124.733626 Z M115.605524,148.05996 C115.919215,148.030253 116.232271,147.971792 116.541032,147.883689 L115.605524,148.05996 Z M114.166951,110.407558 C124.705958,98.6522338 128.187745,83.0164225 124.92362,68.6778493 L135.355068,67.4693134 C138.935388,84.89811 134.335907,103.630804 121.749466,117.576462 L114.166951,110.407558 Z M106.479633,103.139568 C106.806875,102.893261 107.110164,102.604128 107.381273,102.272988 C115.07708,92.8990724 117.393803,80.8453241 114.518014,69.8833913 L103.989067,71.1032231 C106.645483,79.2961714 105.139422,88.5491795 99.3103401,95.6455311 C99.1983591,95.7821128 99.0944434,95.9226441 98.9985362,96.0665494 L106.479633,103.139568 Z M15.3356697,55.7611074 C6.89971025,78.8012394 11.5227928,105.328334 28.5993575,124.397249 L21.3713132,131.985831 C1.04650434,109.779436 -4.41025187,78.4467742 5.80655622,51.4150319 L15.3356697,55.7611074 Z M36.277691,26.4614487 C62.9477362,4.69878928 102.235823,6.25890781 127.101808,31.1224454 C129.521978,33.5430215 131.718909,36.0935014 133.693921,38.7500784 L141.091531,31.2266738 C139.077287,28.633102 136.87501,26.1320008 134.483631,23.7406222 C106.348839,-4.3965696 62.2171666,-6.66346239 31.5017858,16.9277771 L36.277691,26.4614487 Z M34.461758,64.4842087 C29.5715858,79.435861 32.3023543,96.4417387 43.0404467,109.235833 L35.8098344,116.827111 C21.967103,100.947079 18.2513136,79.1581936 24.8980938,60.1223752 L34.461758,64.4842087 Z M45.9685469,45.8064358 C64.294256,27.5673164 94.041584,27.597337 112.338162,45.8887019 C114.816278,48.3674682 116.96413,51.0638573 118.778207,53.9194317 L126.263184,46.3071739 C124.350911,43.5673622 122.170221,40.9545051 119.719985,38.5042685 C98.1721096,16.9563933 63.6185006,16.1451697 41.0913586,36.0705975 L45.9685467,45.8064353 Z M43.9989659,68.8339759 C40.7631466,79.814831 42.8019649,92.0283456 50.3067659,101.607067 L57.6167295,93.9324799 C53.3146436,87.7360857 52.0216272,80.2109858 53.6440372,73.2329379 L43.9989659,68.8339759 Z M50.9717508,55.7938831 C51.6931814,54.9272235 52.4603623,54.0859084 53.2731354,53.2731354 C67.5225599,39.0237108 90.7016934,39.0237108 104.951118,53.2731354 C107.484763,55.8062853 109.575369,58.6168868 111.218142,61.6080535 L103.424168,69.5345634 C102.140572,66.3000201 100.185467,63.270415 97.5692948,60.6549585 C87.3944905,50.4775439 70.8297628,50.4775439 60.6549585,60.6549585 C58.9018684,62.4080486 57.4456177,64.3470159 56.2893483,66.4089264 L50.9717508,55.7938831 Z" id="ring-3"></path>
                    </g>
                </g>
                <g id="wedges" mask="url(#mask-2)">
                    <g transform="translate(134.000000, 134.475676)"></g>
                </g>
            </g>
            <g id="hands" sketch:type="MSLayerGroup" transform="translate(42.000000, 64.000000)">
                <g id="left-hand" transform="translate(93.000000, 129.500000) scale(-1, 1) translate(-93.000000, -129.500000) " sketch:type="MSShapeGroup">
                    <path d="M8.96832168,257.957492 C4.06208392,257.957492 0.0715384615,253.964467 0.0715384615,249.055181 L0.0715384615,168.70401 C0.0715384615,145.44607 14.0215385,124.856221 35.6118462,116.24805 L48.9687273,110.92098 C54.7737483,108.605598 60.3433427,105.664191 65.5253287,102.173548 L113.99849,69.5330402 C117.092853,67.4467236 120.702294,66.3456482 124.432699,66.3456482 C128.901902,66.3456482 133.230629,67.950407 136.618951,70.8657839 L142.166434,75.6345075 L142.166434,29.0353317 C142.166434,13.470603 154.820937,0.808236181 170.376,0.808236181 L172.635315,0.808236181 C180.005077,0.808236181 186,6.80688442 186,14.1812261 L186,110.311874 C186,124.027161 184.930825,138.131598 172.146252,146.640854 L87.566979,202.933658 C82.0142937,206.62994 78.6988112,212.818608 78.6988112,219.492739 L78.6988112,249.055181 C78.6988112,253.964467 74.7082657,257.957492 69.8033287,257.957492 L8.96832168,257.957492 L8.96832168,257.957492 Z" stroke="#07447E" stroke-width="5.2" fill="#FFFFFF"></path>
                    <path d="M79.4285035,166.585156 C79.1215385,166.585156 78.8080699,166.531794 78.5024056,166.419864 C77.1054545,165.909673 76.3874685,164.360879 76.8986434,162.96306 L80.831958,152.207402 C84.2202797,142.938065 90.0461119,134.73206 97.6773147,128.478317 L140.341552,93.5133166 C142.397958,91.8291658 143.70386,89.3432864 143.92628,86.6947186 C144.15,84.0448492 143.274629,81.3754573 141.530392,79.3711357 C140.552266,78.2505377 140.668028,76.5468643 141.790531,75.5694322 C142.910434,74.5933015 144.613049,74.7065327 145.589874,75.8310352 C148.288825,78.9273216 149.638951,83.0504975 149.294266,87.1450402 C148.952182,91.2395829 146.933497,95.0816332 143.755888,97.6846482 L101.09165,132.649648 C94.2057483,138.292985 88.9496224,145.694658 85.8903776,154.060749 L81.9583636,164.815106 C81.559049,165.90707 80.5262937,166.585156 79.4285035,166.585156 L79.4285035,166.585156 Z" id="left-crease" fill="#07447E"></path>
                </g>
            </g>
        </g>
    </g>
</svg>