<?xml version="1.0" encoding="UTF-8" standalone="no"?>
<svg width="38px" height="38px" viewBox="0 0 38 38" version="1.1" xmlns="http://www.w3.org/2000/svg" xmlns:xlink="http://www.w3.org/1999/xlink">
    <!-- Generator: Sketch 3.6.1 (26313) - http://www.bohemiancoding.com/sketch -->
    <title>m&amp;e-icon</title>
    <desc>Created with Sketch.</desc>
    <defs></defs>
    <g id="Page-1" stroke="none" stroke-width="1" fill="none" fill-rule="evenodd">
        <g id="ict4d-anchor-areas" transform="translate(-97.000000, -459.000000)" fill="#07447E">
            <g id="items" transform="translate(41.000000, 152.000000)">
                <g id="m&amp;e" transform="translate(0.000000, 307.000000)">
                    <g id="m&amp;e-icon" transform="translate(56.000000, 0.000000)">
                        <path d="M34,36 L4,36 C2.896,36 2,35.104 2,34 L2,4 C2,2.896 2.896,2 4,2 C5.105,2 6,2.896 6,4 L6,32 L34,32 C35.105,32 36,32.896 36,34 C36,35.104 35.105,36 34,36 L34,36 Z M16.738,13.189 C16.956,12.851 17.3,12.614 17.694,12.532 C17.795,12.511 17.898,12.5 18,12.5 C18.294,12.5 18.584,12.586 18.832,12.752 L23.495,15.86 L28.071,7.851 L24,6 L31.006,2.886 C31.244,2.674 31.538,2.544 31.849,2.512 L33,2 L33.27,3.214 C33.45,3.505 33.531,3.85 33.487,4.192 L35,11 L30.816,9.098 L25.303,18.744 C25.096,19.105 24.749,19.364 24.345,19.46 C24.231,19.487 24.115,19.5 24,19.5 C23.707,19.5 23.417,19.414 23.168,19.248 L18.437,16.094 L10.262,28.811 C9.976,29.257 9.492,29.5 8.999,29.5 C8.721,29.5 8.44,29.423 8.189,29.262 L8,29.112 L8,26.782 L16.738,13.189 L16.738,13.189 Z M34,30 L11.854,30 L11.945,29.89 L19.019,18.886 L22.059,20.912 C22.636,21.297 23.307,21.5 24,21.5 C24.273,21.5 24.545,21.468 24.81,21.405 C25.744,21.184 26.557,20.577 27.038,19.739 L31.648,11.673 L34.172,12.821 C34.438,12.941 34.719,13 35,13 C35.45,13 35.897,12.848 36.26,12.553 C36.849,12.076 37.117,11.306 36.952,10.566 L35.498,4.024 C35.5,3.507 35.386,2.991 35.164,2.519 L34.953,1.566 C34.822,0.981 34.436,0.484 33.901,0.214 C33.617,0.072 33.309,0 33,0 C32.724,0 32.447,0.057 32.188,0.172 L31.266,0.582 C30.798,0.683 30.358,0.878 29.967,1.159 L23.188,4.172 C22.468,4.492 22.004,5.204 22,5.992 C21.997,6.779 22.456,7.495 23.173,7.821 L25.247,8.764 L22.821,13.008 L19.942,11.088 C19.364,10.703 18.693,10.5 18,10.5 C17.76,10.5 17.52,10.525 17.285,10.574 C16.374,10.764 15.561,11.323 15.057,12.106 L8,23.083 L8,4 C8,1.794 6.206,0 4,0 C1.795,0 0,1.794 0,4 L0,34 C0,36.206 1.795,38 4,38 L34,38 C36.205,38 38,36.206 38,34 C38,31.794 36.205,30 34,30 L34,30 Z" id="Fill-127"></path>
                    </g>
                </g>
            </g>
        </g>
    </g>
</svg>