<?xml version="1.0" encoding="UTF-8" standalone="no"?>
<svg width="38px" height="36px" viewBox="0 0 38 36" version="1.1" xmlns="http://www.w3.org/2000/svg" xmlns:xlink="http://www.w3.org/1999/xlink">
    <!-- Generator: Sketch 3.6.1 (26313) - http://www.bohemiancoding.com/sketch -->
    <title>media-production-icon</title>
    <desc>Created with Sketch.</desc>
    <defs></defs>
    <g id="Page-1" stroke="none" stroke-width="1" fill="none" fill-rule="evenodd">
        <g id="ict4d-anchor-areas" transform="translate(-288.000000, -631.000000)" fill="#07447E">
            <g id="items" transform="translate(41.000000, 152.000000)">
                <g id="media-production" transform="translate(190.000000, 479.000000)">
                    <g id="media-production-icon" transform="translate(57.000000, 0.000000)">
                        <path d="M4,13 L6,13 L6,11 L4,11 L4,13 Z" id="Fill-92"></path>
                        <path d="M4,5 L6,5 L6,3 L4,3 L4,5 Z" id="Fill-93"></path>
                        <path d="M4,33 L6,33 L6,31 L4,31 L4,33 Z" id="Fill-94"></path>
                        <path d="M4,29 L6,29 L6,27 L4,27 L4,29 Z" id="Fill-95"></path>
                        <path d="M28,27 L9.997,27 L10,9 L28,9 L28,27 L28,27 Z M28,7 L10,7 C8.896,7 8,7.896 8,9 L8,27 C8,28.104 8.896,29 10,29 L28,29 C29.105,29 30,28.104 30,27 L30,9 C30,7.896 29.105,7 28,7 L28,7 Z" id="Fill-96"></path>
                        <path d="M4,17 L6,17 L6,15 L4,15 L4,17 Z" id="Fill-97"></path>
                        <path d="M4,25 L6,25 L6,23 L4,23 L4,25 Z" id="Fill-98"></path>
                        <path d="M4,21 L6,21 L6,19 L4,19 L4,21 Z" id="Fill-99"></path>
                        <path d="M4,9 L6,9 L6,7 L4,7 L4,9 Z" id="Fill-100"></path>
                        <path d="M32,33 L34,33 L34,31 L32,31 L32,33 Z" id="Fill-101"></path>
                        <path d="M32,5 L34,5 L34,3 L32,3 L32,5 Z" id="Fill-102"></path>
                        <path d="M32,9 L34,9 L34,7 L32,7 L32,9 Z" id="Fill-103"></path>
                        <path d="M36,32 C36,33.104 35.105,34 34,34 L30,34 L30,33 C30,31.896 29.105,31 28,31 L10,31 C8.896,31 8,31.896 8,33 L8,34 L4,34 C2.896,34 2,33.104 2,32 L2,4 C2,2.896 2.896,2 4,2 L8,2 L8,3 C8,4.104 8.896,5 10,5 L28,5 C29.105,5 30,4.104 30,3 L30,2 L34,2 C35.105,2 36,2.896 36,4 L36,32 L36,32 Z M34,0 L30,0 C28.896,0 28,0.896 28,2 L28,3 L10,3 L10,2 C10,0.896 9.105,0 8,0 L4,0 C1.794,0 0,1.794 0,4 L0,32 C0,34.206 1.794,36 4,36 L8,36 C9.105,36 10,35.104 10,34 L10,33 L28,33 L28,34 C28,35.104 28.896,36 30,36 L34,36 C36.206,36 38,34.206 38,32 L38,4 C38,1.794 36.206,0 34,0 L34,0 Z" id="Fill-104"></path>
                        <path d="M32,13 L34,13 L34,11 L32,11 L32,13 Z" id="Fill-105"></path>
                        <path d="M32,17 L34,17 L34,15 L32,15 L32,17 Z" id="Fill-106"></path>
                        <path d="M32,25 L34,25 L34,23 L32,23 L32,25 Z" id="Fill-107"></path>
                        <path d="M32,29 L34,29 L34,27 L32,27 L32,29 Z" id="Fill-108"></path>
                        <path d="M32,21 L34,21 L34,19 L32,19 L32,21 Z" id="Fill-109"></path>
                    </g>
                </g>
            </g>
        </g>
    </g>
</svg>