<?xml version="1.0" encoding="UTF-8" standalone="no"?>
<svg width="26px" height="39px" viewBox="0 0 26 39" version="1.1" xmlns="http://www.w3.org/2000/svg" xmlns:xlink="http://www.w3.org/1999/xlink">
    <!-- Generator: Sketch 3.6.1 (26313) - http://www.bohemiancoding.com/sketch -->
    <title>mobile-icon</title>
    <desc>Created with Sketch.</desc>
    <defs></defs>
    <g id="Page-1" stroke="none" stroke-width="1" fill="none" fill-rule="evenodd">
        <g id="ict4d-anchor-areas" transform="translate(-293.000000, -152.000000)" fill="#07447E">
            <g id="items" transform="translate(41.000000, 152.000000)">
                <g id="mobile" transform="translate(190.000000, 0.000000)">
                    <g id="mobile-icon" transform="translate(62.000000, 0.000000)">
                        <path d="M9,6 L17,6 L17,4 L9,4 L9,6 Z" id="Fill-199"></path>
                        <path d="M7,29 L19,29 L19,10 L7,10 L7,29 Z M5,31 L21,31 L21,8 L5,8 L5,31 Z" id="Fill-200"></path>
                        <path d="M24,35 C24,36.104 23.105,37 22,37 L4,37 C2.896,37 2,36.104 2,35 L2,4 C2,2.896 2.896,2 4,2 L22,2 C23.105,2 24,2.896 24,4 L24,35 L24,35 Z M22,0 L4,0 C1.795,0 0,1.794 0,4 L0,35 C0,37.206 1.795,39 4,39 L22,39 C24.205,39 26,37.206 26,35 L26,4 C26,1.794 24.205,0 22,0 L22,0 Z" id="Fill-201"></path>
                        <path d="M15,34 C15,35.104 14.105,36 13,36 C11.896,36 11,35.104 11,34 C11,32.896 11.896,32 13,32 C14.105,32 15,32.896 15,34" id="Fill-202"></path>
                    </g>
                </g>
            </g>
        </g>
    </g>
</svg>