<?xml version="1.0" encoding="UTF-8" standalone="no"?>
<svg width="39px" height="36px" viewBox="0 0 39 36" version="1.1" xmlns="http://www.w3.org/2000/svg" xmlns:xlink="http://www.w3.org/1999/xlink">
    <!-- Generator: Sketch 3.6.1 (26313) - http://www.bohemiancoding.com/sketch -->
    <title>radio-icon</title>
    <desc>Created with Sketch.</desc>
    <defs></defs>
    <g id="Page-1" stroke="none" stroke-width="1" fill="none" fill-rule="evenodd">
        <g id="ict4d-anchor-areas" transform="translate(-476.000000, -155.000000)" fill="#07447E">
            <g id="items" transform="translate(41.000000, 152.000000)">
                <g id="radio" transform="translate(380.000000, 3.000000)">
                    <g id="radio-icon" transform="translate(55.000000, 0.000000)">
                        <path d="M36.005,32 C36.005,33.104 35.105,34 34.005,34 L4,34 C2.896,34 2,33.104 2,32 L2,12 C2,10.896 2.896,10 4,10 L15,10 L9.401,5.8 C8.958,5.469 8.869,4.842 9.2,4.4 C9.397,4.138 9.697,4 10.001,4 C10.21,4 10.42,4.065 10.6,4.2 L17.981,9.735 L27.375,2.219 C27.555,2.072 27.785,2 28.005,2 C28.295,2 28.585,2.129 28.785,2.375 C29.125,2.807 29.055,3.436 28.625,3.781 L20.855,10 L34.005,10 C35.105,10 36.005,10.896 36.005,12 L36.005,32 L36.005,32 Z M34.005,8 L26.555,8 L29.875,5.343 C30.505,4.843 30.895,4.128 30.985,3.331 C31.075,2.535 30.845,1.752 30.345,1.126 C29.775,0.411 28.915,0 28.005,0 C27.325,0 26.655,0.233 26.125,0.656 L17.941,7.206 L11.8,2.6 C11.278,2.208 10.655,2 10.001,2 C9.062,2 8.164,2.448 7.601,3.199 C7.119,3.842 6.917,4.631 7.03,5.424 C7.144,6.218 7.56,6.92 8.202,7.401 L9.001,8 L4,8 C1.794,8 0,9.794 0,12 L0,32 C0,34.206 1.794,36 4,36 L34.005,36 C36.205,36 38.005,34.206 38.005,32 L38.005,12 C38.005,9.794 36.205,8 34.005,8 L34.005,8 Z" id="Fill-566"></path>
                        <path d="M32.005,26 C30.895,26 30.005,26.896 30.005,28 C30.005,29.104 30.895,30 32.005,30 C33.105,30 34.005,29.104 34.005,28 C34.005,26.896 33.105,26 32.005,26" id="Fill-563"></path>
                        <path d="M30.005,16 L34.005,16 L34.005,14 L30.005,14 L30.005,16 Z" id="Fill-565"></path>
                        <path d="M36.005,32 C36.005,33.104 35.105,34 34.005,34 L4,34 C2.896,34 2,33.104 2,32 L2,12 C2,10.896 2.896,10 4,10 L15,10 L9.401,5.8 C8.958,5.469 8.869,4.842 9.2,4.4 C9.397,4.138 9.697,4 10.001,4 C10.21,4 10.42,4.065 10.6,4.2 L17.981,9.735 L27.375,2.219 C27.555,2.072 27.785,2 28.005,2 C28.295,2 28.585,2.129 28.785,2.375 C29.125,2.807 29.055,3.436 28.625,3.781 L20.855,10 L34.005,10 C35.105,10 36.005,10.896 36.005,12 L36.005,32 L36.005,32 Z M34.005,8 L26.555,8 L29.875,5.343 C30.505,4.843 30.895,4.128 30.985,3.331 C31.075,2.535 30.845,1.752 30.345,1.126 C29.775,0.411 28.915,0 28.005,0 C27.325,0 26.655,0.233 26.125,0.656 L17.941,7.206 L11.8,2.6 C11.278,2.208 10.655,2 10.001,2 C9.062,2 8.164,2.448 7.601,3.199 C7.119,3.842 6.917,4.631 7.03,5.424 C7.144,6.218 7.56,6.92 8.202,7.401 L9.001,8 L4,8 C1.794,8 0,9.794 0,12 L0,32 C0,34.206 1.794,36 4,36 L34.005,36 C36.205,36 38.005,34.206 38.005,32 L38.005,12 C38.005,9.794 36.205,8 34.005,8 L34.005,8 Z" id="Fill-566"></path>
                        <path d="M30.005,20 L34.005,20 L34.005,18 L30.005,18 L30.005,20 Z" id="Fill-567"></path>
                        <path d="M30.005,24 L34.005,24 L34.005,22 L30.005,22 L30.005,24 Z" id="Fill-568"></path>
                        <path d="M22.875,28.6 L25.625,28.6 L25.625,25.8 L22.875,25.8 L22.875,28.6 Z M18.75,28.6 L21.5,28.6 L21.5,25.8 L18.75,25.8 L18.75,28.6 Z M14.625,28.6 L17.375,28.6 L17.375,25.8 L14.625,25.8 L14.625,28.6 Z M10.5,28.6 L13.25,28.6 L13.25,25.8 L10.5,25.8 L10.5,28.6 Z M6.375,28.6 L9.125,28.6 L9.125,25.8 L6.375,25.8 L6.375,28.6 Z M6.375,20.2 L9.125,20.2 L9.125,17.4 L6.375,17.4 L6.375,20.2 Z M10.5,20.2 L13.25,20.2 L13.25,17.4 L10.5,17.4 L10.5,20.2 Z M14.625,20.2 L17.375,20.2 L17.375,17.4 L14.625,17.4 L14.625,20.2 Z M18.75,20.2 L21.5,20.2 L21.5,17.4 L18.75,17.4 L18.75,20.2 Z M22.875,20.2 L25.625,20.2 L25.625,17.4 L22.875,17.4 L22.875,20.2 Z M22.875,24.4 L25.625,24.4 L25.625,21.6 L22.875,21.6 L22.875,24.4 Z M18.75,24.4 L21.5,24.4 L21.5,21.6 L18.75,21.6 L18.75,24.4 Z M14.625,24.4 L17.375,24.4 L17.375,21.6 L14.625,21.6 L14.625,24.4 Z M10.5,24.4 L13.25,24.4 L13.25,21.6 L10.5,21.6 L10.5,24.4 Z M6.375,24.4 L9.125,24.4 L9.125,21.6 L6.375,21.6 L6.375,24.4 Z M25.625,16 L6.375,16 C5.616,16 5,16.63 5,17.4 L5,28.6 C5,29.37 5.616,30 6.375,30 L25.625,30 C26.3846875,30 27,29.37 27,28.6 L27,17.4 C27,16.63 26.3846875,16 25.625,16 L25.625,16 Z" id="Fill-417"></path>
                    </g>
                </g>
            </g>
        </g>
    </g>
</svg>