<?xml version="1.0" encoding="UTF-8" standalone="no"?>
<svg width="28px" height="38px" viewBox="0 0 28 38" version="1.1" xmlns="http://www.w3.org/2000/svg" xmlns:xlink="http://www.w3.org/1999/xlink">
    <!-- Generator: Sketch 3.6.1 (26313) - http://www.bohemiancoding.com/sketch -->
    <title>stem-icon</title>
    <desc>Created with Sketch.</desc>
    <defs></defs>
    <g id="Page-1" stroke="none" stroke-width="1" fill="none" fill-rule="evenodd">
        <g id="ict4d-anchor-areas" transform="translate(-102.000000, -623.000000)" fill="#07447E">
            <g id="items" transform="translate(41.000000, 152.000000)">
                <g id="stem" transform="translate(0.000000, 471.000000)">
                    <g id="stem-icon" transform="translate(61.000000, 0.000000)">
                        <path d="M24,36 L4,36 C2.896,36 2,35.104 2,34 L11,13 L11,6 L10,6 C8.896,6 8,5.104 8,4 C8,2.896 8.896,2 10,2 L18,2 C19.105,2 20,2.896 20,4 C20,5.104 19.105,6 18,6 L17,6 L17,13 L26,34 C26,35.104 25.105,36 24,36 L24,36 Z M27.838,33.212 L19,12.589 L19,7.874 C20.724,7.428 22,5.86 22,4 C22,1.794 20.206,0 18,0 L10,0 C7.794,0 6,1.794 6,4 C6,5.86 7.277,7.428 9,7.874 L9,12.589 L0.162,33.212 C0.055,33.461 0,33.729 0,34 C0,36.206 1.794,38 4,38 L24,38 C26.206,38 28,36.206 28,34 C28,33.729 27.945,33.461 27.838,33.212 L27.838,33.212 Z" id="Fill-633"></path>
                        <path d="M8.726,31 L17.053,25.816 L19.275,31 L8.726,31 L8.726,31 Z M14,18.693 L16.273,23.996 L10.103,27.788 L14,18.693 L14,18.693 Z M14,13.616 L5.693,33 L22.308,33 L14,13.616 L14,13.616 Z" id="Fill-634"></path>
                    </g>
                </g>
            </g>
        </g>
    </g>
</svg>